<?xml version="1.0" standalone="no"?>
<!DOCTYPE svg PUBLIC "-//W3C//DTD SVG 20010904//EN"
 "http://www.w3.org/TR/2001/REC-SVG-20010904/DTD/svg10.dtd">
<svg version="1.0" xmlns="http://www.w3.org/2000/svg"
 width="1600.000000pt" height="1600.000000pt" viewBox="0 0 1600.000000 1600.000000"
 preserveAspectRatio="xMidYMid meet">
<metadata>
Created by potrace 1.14, written by Peter Selinger 2001-2017
</metadata>
<g transform="translate(0.000000,1600.000000) scale(0.100000,-0.100000)"
fill="#000000" stroke="none">
<path d="M7562 13585 c0 -16 2 -22 5 -12 2 9 2 23 0 30 -3 6 -5 -1 -5 -18z"/>
<path d="M7560 13400 c-2 -160 -8 -271 -16 -279 -2 -2 -4 85 -4 194 0 109 -2
196 -4 194 -2 -2 -7 -56 -10 -119 -4 -63 -9 -135 -11 -160 -1 -25 -6 -250 -10
-500 -5 -250 -9 -475 -10 -500 -1 -25 -3 -75 -4 -112 0 -38 -5 -68 -11 -68 -5
0 -9 3 -9 8 3 18 -1 195 -5 191 -2 -2 -6 -45 -9 -94 -3 -50 -9 -98 -12 -107
-6 -15 -34 -33 -41 -25 -2 1 -6 59 -9 127 -7 133 -17 222 -33 281 -5 20 -11
81 -12 135 -2 55 -4 133 -5 174 -2 41 -4 149 -6 240 l-2 165 -8 -125 c-4 -69
-9 -135 -12 -147 -5 -19 -9 -134 -22 -603 -2 -52 -3 -139 -4 -192 -1 -90 -3
-99 -23 -112 -52 -32 -64 -30 -92 21 -40 71 -55 126 -70 258 -9 81 -14 104
-15 70 -1 -49 -6 -108 -17 -212 -6 -55 -18 -68 -29 -33 -7 22 -25 27 -26 8 0
-7 -2 -21 -4 -31 -2 -10 -6 -64 -10 -120 -3 -56 -8 -110 -11 -119 -8 -25 -24
-22 -25 5 0 12 -2 54 -4 92 -2 39 -3 115 -4 169 -1 55 -3 97 -5 95 -2 -2 -7
-35 -11 -74 -6 -60 -30 -134 -40 -123 -3 3 -6 35 -20 233 -3 39 -7 79 -10 90
-2 11 -4 34 -5 50 -4 45 -18 -45 -19 -115 -1 -42 -4 -51 -13 -42 -7 7 -20 12
-29 12 -18 0 -25 -13 -33 -65 -20 -123 -38 -225 -46 -255 -10 -37 -17 -119
-25 -285 -6 -133 -12 -165 -35 -195 -20 -25 -20 -25 -21 170 -1 107 -3 224 -4
260 -5 151 -16 380 -20 440 -2 36 -7 108 -10 160 -15 254 -37 262 -51 20 -7
-121 -18 -158 -29 -94 -32 192 -46 241 -64 229 -31 -19 -62 -323 -86 -845 -6
-119 -9 -170 -20 -320 -22 -276 -33 -282 -70 -35 -19 126 -23 145 -35 145 -4
0 -10 -10 -13 -22 -10 -37 -14 -18 -21 87 -15 233 -30 372 -41 383 -2 2 -9
-16 -16 -39 l-12 -44 -11 40 c-18 61 -27 23 -51 -225 -8 -80 -15 -89 -16 -24
-1 27 -3 63 -4 79 -2 17 -6 55 -9 85 -8 76 -20 115 -37 115 -18 0 -36 -39 -43
-90 -3 -22 -10 -83 -17 -135 -6 -52 -15 -99 -19 -103 -4 -4 -12 16 -19 45 -26
118 -44 95 -60 -77 -14 -151 -19 -224 -26 -350 -3 -55 -8 -136 -10 -180 -3
-44 -7 -134 -10 -200 -5 -114 -8 -157 -20 -312 -10 -122 -28 -223 -41 -223
-11 0 -24 57 -54 222 -38 210 -52 234 -69 116 -6 -46 -15 -96 -19 -112 -7 -27
-8 -26 -21 23 -24 93 -33 72 -55 -134 -24 -215 -27 -246 -31 -300 -6 -68 -30
-275 -40 -334 -2 -13 -9 -69 -15 -125 -7 -56 -13 -110 -15 -121 -2 -11 -4 -29
-4 -39 -2 -47 -12 1 -27 130 -18 155 -32 201 -35 114 -1 -30 -3 -68 -4 -85 -2
-16 -3 -68 -4 -114 0 -46 -3 -82 -5 -80 -5 5 -14 124 -17 229 l-2 75 -6 -55
c-4 -30 -5 -412 -5 -848 l2 -794 -26 24 c-37 34 -91 93 -131 145 -19 25 -37
40 -39 34 -6 -19 70 -184 115 -250 24 -35 42 -66 39 -68 -6 -6 -141 128 -179
177 l-26 35 5 -55 c12 -122 73 -252 171 -368 25 -29 43 -55 40 -58 -12 -12
-210 102 -268 154 -33 30 -62 52 -65 50 -8 -9 57 -122 100 -173 73 -89 147
-141 244 -171 80 -25 69 -39 -33 -43 -77 -3 -86 -11 -12 -11 62 0 76 -14 26
-24 -74 -14 -282 1 -399 30 -51 12 34 -33 111 -59 107 -36 172 -44 312 -36 26
1 49 0 51 -2 3 -2 7 -56 11 -119 3 -63 8 -146 10 -185 2 -38 7 -121 11 -182
l6 -113 -52 -82 c-29 -46 -98 -144 -154 -218 -101 -136 -171 -256 -182 -318
-5 -25 -2 -38 14 -55 11 -12 34 -49 50 -82 l31 -60 1 50 c1 44 16 106 20 80 5
-37 9 -76 21 -200 10 -107 14 -132 20 -105 10 48 18 118 18 159 1 60 19 21 30
-62 5 -43 14 -83 19 -90 11 -13 37 -128 48 -214 7 -56 24 -63 24 -10 0 18 7
44 14 59 8 16 18 49 21 75 4 27 9 55 12 63 8 21 21 -24 22 -78 1 -63 17 -43
20 25 1 32 4 67 6 78 2 11 4 29 4 39 1 20 1 20 16 0 8 -10 15 -30 15 -44 1
-21 3 -22 9 -7 15 39 26 19 31 -53 5 -77 16 -91 37 -49 12 22 13 22 13 4 1
-15 5 -12 19 14 18 33 18 33 24 10 4 -13 7 -42 8 -64 l1 -40 13 35 c17 45 22
29 28 -80 4 -84 10 -103 65 -208 18 -35 26 -41 37 -32 18 15 23 -5 26 -110 1
-47 6 -90 10 -95 8 -10 16 -85 19 -170 2 -44 5 -40 15 18 6 40 25 42 25 2 0
-13 4 -26 9 -29 5 -3 9 42 10 100 1 58 8 141 16 183 8 42 17 102 21 135 3 32
10 53 14 46 4 -6 10 19 14 57 4 37 10 79 13 93 l7 25 7 -25 c4 -14 8 -50 8
-80 2 -72 16 -97 25 -44 8 48 25 80 26 49 1 -15 4 -13 14 10 l13 30 12 -65 c7
-36 14 -74 16 -85 2 -11 4 -47 4 -79 1 -77 9 -68 16 19 7 81 14 97 16 34 1
-24 3 -66 4 -94 2 -27 6 -144 10 -260 7 -210 14 -275 16 -154 1 35 2 75 4 89
1 14 3 61 5 105 3 76 3 78 10 30 l7 -50 2 50 c6 108 9 226 11 345 3 164 7 190
31 190 11 0 19 -3 19 -7 0 -5 5 -37 10 -73 11 -78 24 -359 31 -685 1 -74 2
-77 10 -36 4 24 13 48 18 55 5 6 12 63 16 126 6 115 15 160 15 81 0 -23 7 -58
16 -79 9 -22 17 -82 21 -152 3 -63 9 -116 14 -118 5 -2 9 -20 10 -40 1 -33 2
-35 9 -12 7 21 8 18 10 -20 2 -25 4 -58 5 -75 2 -16 3 -86 4 -154 1 -68 3
-122 6 -119 11 11 23 339 25 660 1 103 4 196 7 208 5 19 6 19 19 3 11 -15 13
-15 14 -3 1 22 30 -19 30 -42 0 -23 20 -24 21 0 0 9 7 49 14 87 10 55 14 63
15 35 1 -19 4 -51 5 -70 2 -19 6 -100 9 -180 8 -176 17 -304 22 -309 2 -2 5
36 5 85 1 49 2 94 4 99 1 6 3 32 3 59 4 119 20 -13 22 -184 l2 -105 14 65 c16
75 21 118 29 248 3 52 11 105 19 120 13 24 14 15 18 -103 3 -98 8 -137 20
-160 l17 -30 1 50 c2 56 8 47 24 -35 19 -96 34 -64 52 113 3 32 7 57 9 55 6
-6 21 -140 30 -268 3 -47 8 -96 11 -109 8 -37 25 -11 39 61 l13 63 1 -80 c3
-115 17 -66 24 85 4 69 7 139 7 155 l1 30 14 -27 c9 -15 20 -73 25 -130 6 -57
15 -130 20 -163 5 -33 12 -139 15 -235 4 -96 9 -188 12 -205 3 -16 7 -92 10
-167 3 -76 9 -138 13 -138 4 0 8 64 9 143 2 78 4 158 6 177 2 19 6 87 10 150
3 63 8 133 10 155 2 22 7 88 10 146 4 58 8 114 10 125 2 10 4 28 5 39 0 16 2
17 9 5 9 -15 16 -159 27 -530 3 -113 7 -232 9 -265 2 -33 4 -80 4 -104 2 -91
11 -29 16 105 6 142 14 229 20 222 4 -4 10 -57 20 -168 17 -203 36 -350 46
-356 5 -3 9 2 9 12 0 13 3 14 15 4 13 -11 15 -4 16 51 1 35 2 75 4 89 1 14 6
86 10 160 4 74 9 146 10 160 2 14 6 111 10 215 3 105 9 206 12 225 l6 35 8
-35 c4 -19 10 -45 13 -58 3 -13 8 -123 12 -245 3 -122 8 -233 9 -247 2 -14 4
-56 5 -95 3 -111 16 -31 24 142 12 280 21 367 36 358 10 -6 18 -84 26 -265 3
-74 7 -137 10 -141 3 -6 15 -358 18 -551 1 -69 10 -89 18 -43 3 14 6 155 8
313 1 158 4 316 5 352 2 36 6 137 9 225 3 88 9 196 13 240 7 71 8 75 14 40 5
-31 7 -20 8 45 4 151 12 215 27 223 8 4 14 15 14 24 0 29 8 9 14 -32 2 -22 8
-76 11 -120 4 -44 13 -99 21 -123 8 -23 14 -50 14 -58 0 -8 5 -12 10 -9 6 3
10 25 11 48 1 76 15 88 23 19 4 -35 16 -90 26 -123 11 -33 19 -63 18 -67 -2
-7 15 -242 18 -254 1 -5 2 -38 3 -75 2 -84 26 -45 31 50 0 4 5 7 10 7 6 0 10
-22 10 -50 0 -40 3 -48 15 -44 8 4 15 17 15 30 0 13 5 24 10 24 6 0 9 3 9 8
-4 21 2 135 6 130 6 -5 17 -202 31 -563 3 -88 8 -162 10 -164 2 -2 4 43 5 100
0 57 2 120 4 139 1 19 3 53 4 75 2 32 4 36 11 20 5 -11 9 -32 9 -47 1 -38 21
-36 21 2 0 17 5 30 10 30 6 0 10 -31 11 -72 0 -59 2 -70 12 -56 10 15 13 14
23 -10 l12 -27 1 32 c1 17 5 34 10 37 13 8 20 -29 22 -121 1 -45 6 -80 10 -77
5 3 9 12 9 20 0 8 4 14 8 14 5 0 9 46 11 103 2 129 10 181 26 165 3 -2 8 -76
11 -164 3 -87 10 -177 15 -199 6 -22 11 -50 13 -63 4 -30 26 -54 26 -29 0 10
5 14 15 11 10 -4 15 -20 15 -45 0 -21 5 -39 10 -39 6 0 11 -21 12 -47 1 -44 2
-45 5 -10 2 20 7 35 11 33 4 -2 8 19 9 47 0 29 1 76 2 105 1 49 13 68 24 39 3
-7 11 -70 18 -141 12 -116 14 -124 24 -91 14 50 25 34 25 -38 0 -94 8 -63 15
63 4 63 9 117 11 119 2 2 5 -55 5 -127 1 -73 3 -145 4 -162 1 -16 3 -62 4
-102 0 -39 4 -68 8 -64 10 10 10 11 12 102 1 57 4 75 14 71 9 -3 13 25 15 122
3 121 18 291 28 300 2 2 4 -62 4 -143 0 -81 4 -145 8 -142 5 3 9 29 11 58 1
29 4 55 7 57 4 4 8 -130 5 -154 -1 -5 6 -1 14 9 8 11 16 27 16 35 1 9 7 -6 14
-34 l13 -50 2 75 c1 41 3 89 5 105 1 17 4 46 5 65 2 31 4 28 15 -25 7 -33 13
-62 14 -65 1 -3 6 2 11 10 5 8 10 56 11 105 1 102 4 101 24 -11 19 -105 32
-162 34 -144 1 11 9 7 25 -12 16 -17 26 -45 30 -80 4 -29 10 -71 14 -93 l6
-40 6 50 c6 50 6 49 19 -42 8 -51 17 -90 21 -88 4 2 10 25 14 51 3 26 11 65
18 88 l12 41 9 -55 c4 -30 11 -90 13 -132 6 -78 23 -108 25 -43 1 19 3 44 4
55 1 11 4 39 5 63 l3 42 7 -35 7 -35 2 30 c2 17 4 39 6 50 2 11 6 47 9 79 6
63 15 86 17 45 1 -13 3 -37 4 -54 2 -16 3 -120 4 -229 1 -110 3 -197 5 -195 4
4 15 239 16 339 0 37 3 50 9 41 7 -11 10 -5 13 20 2 21 8 33 16 31 6 -1 12 6
12 15 1 38 39 -32 46 -82 3 -27 9 -56 13 -63 10 -17 61 80 62 116 0 15 4 36 9
47 7 18 9 18 15 3 4 -9 12 -15 19 -12 16 6 31 -13 40 -50 6 -26 8 -27 20 -11
12 17 13 17 19 1 4 -10 12 -14 18 -10 7 4 31 -3 54 -16 24 -13 50 -20 59 -17
19 8 18 24 -25 237 -65 319 -144 577 -285 933 -43 108 -73 195 -69 205 8 28
13 132 20 417 4 143 8 278 10 300 2 22 6 96 10 165 3 69 10 166 15 215 5 50
10 101 10 114 0 16 4 21 9 15 6 -5 13 -54 17 -109 8 -114 13 -134 15 -52 1 31
3 62 4 67 1 6 3 20 5 33 4 45 18 -24 35 -173 9 -79 20 -151 24 -160 5 -8 11
-111 15 -229 3 -118 8 -216 10 -218 8 -8 16 75 21 232 3 88 8 207 10 265 2 58
7 197 11 310 3 113 10 212 15 220 6 12 9 9 9 -10 1 -14 3 -33 5 -42 2 -10 6
-59 9 -110 7 -96 10 -133 25 -253 4 -38 9 -153 10 -255 3 -221 10 -423 16
-429 3 -2 5 25 5 62 0 36 4 68 8 71 5 3 10 38 11 78 2 88 10 138 22 138 5 0
10 -11 10 -25 1 -14 2 -28 3 -32 6 -25 23 -224 32 -378 4 -66 8 -131 9 -145 2
-14 3 -45 4 -69 1 -24 3 -42 5 -40 10 9 17 128 32 489 3 85 10 162 15 170 6
10 9 1 10 -30 0 -25 2 -56 4 -70 1 -14 5 -178 9 -365 7 -392 16 -658 22 -664
2 -2 4 24 4 58 0 39 4 60 10 56 6 -4 10 9 11 32 0 21 2 45 4 53 3 16 12 366
20 790 9 466 17 735 21 739 2 2 4 -36 5 -85 1 -93 7 -176 15 -183 2 -2 4 34 5
80 1 160 18 47 25 -167 3 -114 8 -215 9 -223 2 -9 4 -27 4 -40 1 -13 3 -22 5
-20 8 8 16 114 32 464 3 72 10 148 16 170 16 61 16 65 23 191 3 66 8 153 10
194 11 210 18 305 21 309 3 4 8 -103 8 -181 0 -9 3 -15 6 -13 4 2 10 42 14 87
4 46 11 87 16 92 7 7 10 6 11 -2 1 -7 2 -15 3 -19 1 -5 6 -44 10 -88 5 -44 10
-89 11 -100 2 -11 6 -51 10 -90 19 -205 36 -246 50 -123 4 35 9 70 10 78 2 8
6 71 10 140 7 128 14 168 16 89 1 -24 3 -73 4 -109 1 -36 6 -189 10 -340 4
-151 8 -281 8 -287 0 -7 4 -13 9 -13 4 0 8 21 9 48 1 51 6 93 16 132 l6 25 7
-25 c6 -24 7 -23 19 15 18 60 39 234 46 375 3 77 10 127 17 131 14 9 14 8 22
329 4 140 9 307 11 370 2 63 7 206 11 318 3 112 7 211 9 220 2 9 4 28 5 42 2
17 6 10 15 -25 7 -27 17 -62 23 -76 6 -14 13 -73 16 -130 14 -243 19 -291 32
-366 7 -36 24 -35 24 0 0 18 2 19 10 7 5 -8 10 -31 10 -49 0 -58 18 -22 24 49
3 36 8 142 11 235 9 323 29 570 46 581 5 3 9 -5 9 -18 1 -47 13 -203 16 -207
2 -2 4 40 5 95 0 54 2 142 4 194 2 52 4 264 5 470 l1 375 41 125 c22 69 59
200 82 292 38 150 61 222 52 157 -2 -13 -7 -49 -11 -79 -14 -124 -86 -435
-122 -525 -25 -65 -26 -71 -9 -48 9 12 40 77 70 145 136 312 195 604 200 986
7 601 -142 1145 -414 1511 -140 189 -362 354 -545 406 -84 24 -137 49 -176 83
-19 16 -78 59 -132 96 -53 37 -101 75 -106 84 -4 10 -14 41 -21 70 -6 28 -15
54 -20 57 -4 2 -10 -18 -14 -45 -12 -89 -29 -73 -46 43 -5 36 -8 42 -9 20 0
-18 -12 -44 -25 -59 l-24 -28 -5 29 c-8 38 -15 114 -23 245 -4 58 -8 112 -10
120 -1 8 -3 24 -4 35 0 16 -2 17 -9 5 -5 -8 -12 -62 -16 -120 -4 -58 -10 -118
-15 -135 -5 -16 -12 -49 -15 -72 -4 -24 -11 -43 -16 -43 -4 0 -68 20 -141 44
-112 37 -237 70 -188 50 8 -4 30 -13 49 -20 52 -21 33 -25 -44 -9 -62 13 -100
35 -74 43 6 3 6 8 1 15 -5 7 -12 66 -16 132 -3 66 -8 129 -10 140 -3 11 -5 47
-5 79 -1 33 -3 57 -6 55 -10 -10 -22 -134 -31 -309 -3 -69 -8 -127 -10 -129
-10 -11 -22 18 -28 64 -3 28 -8 181 -11 340 -4 160 -8 371 -10 470 -2 99 -5
245 -6 325 l-2 145 -8 -130 c-4 -71 -10 -146 -13 -165 -4 -34 -9 -115 -22
-429 -3 -80 -9 -154 -13 -165 -5 -12 -9 -52 -10 -90 -1 -38 -6 -78 -11 -90 -4
-11 -11 -64 -16 -116 -4 -52 -9 -98 -10 -102 -1 -5 -2 -15 -3 -23 -1 -11 -13
-15 -48 -15 -80 0 -75 -9 -99 215 -5 39 -9 73 -10 78 -1 4 -2 19 -3 35 -1 20
-4 23 -10 12 -9 -15 -16 -58 -27 -160 -7 -72 -14 -76 -15 -9 -1 30 -3 61 -4
69 -1 8 -3 58 -4 110 -2 93 -2 94 -16 61 -8 -18 -15 -44 -15 -58 0 -13 -3 -22
-7 -20 -5 3 -9 -50 -10 -116 -1 -67 -5 -141 -8 -165 l-6 -43 -70 2 c-38 1 -72
-1 -76 -4 -3 -4 -33 -7 -65 -7 l-58 0 -1 58 c0 31 -1 80 -1 107 l0 50 -8 -40
c-5 -29 -8 -10 -9 73 0 67 -5 112 -11 112 -5 0 -10 -21 -10 -47 -1 -109 -13
-250 -24 -282 -14 -44 -36 -52 -37 -14 l-1 28 -8 -30 c-5 -21 -8 3 -10 75 -1
58 -3 119 -5 135 -1 17 -3 68 -4 114 -2 126 -10 93 -12 -49 -1 -69 -5 -145 -9
-170 l-7 -45 -2 53 c-2 83 -16 53 -19 -40 -3 -103 -12 -163 -22 -151 -5 4 -10
22 -13 38 -3 26 -4 24 -6 -10 0 -23 -5 -35 -10 -30 -5 6 -12 117 -16 248 -3
131 -8 248 -10 260 -2 12 -6 72 -9 132 -9 161 -17 229 -27 239 -5 6 -9 -14
-10 -50 0 -32 -2 -93 -5 -134 -2 -41 -6 -113 -8 -160 -3 -47 -5 -112 -6 -145
0 -35 -4 -55 -9 -47 -7 11 -11 121 -14 348 -1 47 -4 61 -14 57 -7 -3 -13 -1
-14 3 0 5 -3 18 -5 29 -3 11 -8 160 -10 330 -6 347 -11 418 -14 185z"/>
<path d="M7931 12554 c0 -11 3 -14 6 -6 3 7 2 16 -1 19 -3 4 -6 -2 -5 -13z"/>
<path d="M7951 12434 c0 -11 3 -14 6 -6 3 7 2 16 -1 19 -3 4 -6 -2 -5 -13z"/>
<path d="M5068 7558 c6 -6 18 -8 28 -6 14 3 12 5 -9 10 -19 3 -25 2 -19 -4z"/>
<path d="M5133 7543 c9 -2 23 -2 30 0 6 3 -1 5 -18 5 -16 0 -22 -2 -12 -5z"/>
<path d="M6731 4804 c0 -11 3 -14 6 -6 3 7 2 16 -1 19 -3 4 -6 -2 -5 -13z"/>
<path d="M7050 3860 c0 -5 5 -10 10 -10 6 0 10 5 10 10 0 6 -4 10 -10 10 -5 0
-10 -4 -10 -10z"/>
</g>
</svg>
